<?xml version="1.0" standalone="no"?>
<!DOCTYPE svg PUBLIC "-//W3C//DTD SVG 20010904//EN"
 "http://www.w3.org/TR/2001/REC-SVG-20010904/DTD/svg10.dtd">
<svg version="1.0" xmlns="http://www.w3.org/2000/svg"
 width="865.000000pt" height="534.000000pt" viewBox="0 0 865.000000 534.000000"
 preserveAspectRatio="xMidYMid meet">

<g transform="translate(0.000000,534.000000) scale(0.100000,-0.100000)"
fill="#000000" stroke="none">
<path d="M0 4740 l0 -600 160 0 160 0 0 -1470 0 -1470 -160 0 -160 0 0 -600 0
-600 1200 0 1200 0 0 600 0 600 -310 0 -310 0 2 433 3 432 108 3 107 3 0 -106
0 -105 600 0 600 0 -2 808 -3 807 -597 3 -598 2 0 -105 0 -105 -110 0 -110 0
0 435 0 435 468 -2 467 -3 3 -102 3 -103 599 0 600 0 0 705 0 705 -1960 0
-1960 0 0 -600z"/>
<path d="M4180 4740 l0 -600 160 0 160 0 0 -1470 0 -1470 -160 0 -160 0 0
-600 0 -600 1050 0 1050 0 0 600 0 600 -160 0 -160 0 0 480 0 480 368 0 367 0
83 -83 82 -82 0 -998 0 -997 895 0 895 0 0 600 0 600 -160 0 -160 0 0 607 0
608 -177 177 -178 178 178 178 177 177 0 680 0 680 -428 428 -427 427 -1648 0
-1647 0 0 -600z m2592 -687 l88 -88 0 -215 0 -215 -87 -87 -88 -88 -362 0
-363 0 0 390 0 390 362 0 363 0 87 -87z"/>
</g>
</svg>
